<svg xmlns="http://www.w3.org/2000/svg" viewBox="0 0 2880 600"><defs><style>.a{opacity:0.4;}.b,.f{fill:#fff;}.c{fill:none;stroke:#48d8a8;stroke-miterlimit:10;stroke-width:5px;opacity:0.3;}.d{fill:#846e57;}.e{fill:#48d8a8;}.f{font-size:34.8px;font-family:Courier, Courier;}.g{letter-spacing:-0.24em;}</style></defs><g class="a"><circle class="b" cx="1280.32" cy="257.67" r="3"/></g><path class="c" d="M897.71,448.63h70.94a37.51,37.51,0,0,0,37.51-37.51V265.54a37.42,37.42,0,0,1,37.42-37.42h379.08"/><path class="c" d="M2052.66,448.63H1865.72a37.51,37.51,0,0,1-37.51-37.51V265.54a37.42,37.42,0,0,0-37.42-37.42H1451.71"/><path class="d" d="M1915.63,290.49l49.47,10.13-3.67-3.41a5,5,0,1,1,6.86-7.38l15.77,14.67,3.48.71a18.74,18.74,0,0,1,16.66,8.36l81.45,123.7a18.72,18.72,0,0,1-31.27,20.59L1980.1,329.42l-1.65-2.51-17.28-3.54a68.5,68.5,0,0,1-22.75-9.13L1912.61,298A4.11,4.11,0,0,1,1915.63,290.49Z"/><circle class="e" cx="1939.56" cy="259.44" r="15.95"/><rect class="e" x="773" y="254" width="47" height="84" rx="7.12" ry="7.12"/><rect class="e" x="1045.19" y="254" width="47" height="84" rx="7.12" ry="7.12"/><path class="e" d="M1050.78,254.1H814.61a41.42,41.42,0,0,0-41.42,41.42v1.26a41.42,41.42,0,0,0,41.42,41.42h1.05l15.47,15.47L846.6,338.2h204.17a41.42,41.42,0,0,0,41.42-41.42v-1.26A41.42,41.42,0,0,0,1050.78,254.1Z"/><text class="f" transform="translate(799.13 305.57)">if “usernam<tspan class="g" x="229.72" y="0">...</tspan></text><g class="a"><circle class="b" cx="1742.7" cy="470.74" r="3"/></g><circle class="e" cx="1439.56" cy="228.44" r="32.44"/><rect class="e" x="1132.5" y="225.5" width="20" height="5" rx="1.77" ry="1.77"/><rect class="e" x="1052.5" y="225.5" width="20" height="5" rx="1.77" ry="1.77"/><rect class="e" x="996.5" y="375.5" width="20" height="5" rx="1.77" ry="1.77" transform="translate(628.5 1384.5) rotate(-90)"/><rect class="e" x="1687.5" y="225.5" width="70" height="5" rx="2.5" ry="2.5"/></svg>