<svg xmlns="http://www.w3.org/2000/svg" viewBox="0 0 2880 600"><defs><style>.a{isolation:isolate;}.b,.n,.o,.r,.w{fill:none;}.b{stroke:#48d8a8;stroke-width:5px;}.b,.o,.w{stroke-miterlimit:10;}.aa,.b{opacity:0.3;}.c{fill:#f2f2f2;}.d{fill:#846e57;}.e{fill:#1c1006;}.f{fill:#a6d1d1;}.g,.p{fill:#fff;}.h,.n{opacity:0.2;}.h,.n,.s,.u{mix-blend-mode:multiply;}.i{fill:#2d3033;}.j{fill:#3c3f42;}.k{fill:#48d8a8;}.l{fill:#bfc4c4;}.m{fill:#f2eae2;}.n{stroke:#000;}.n,.r,.w{stroke-linecap:round;}.n,.r{stroke-linejoin:round;}.n,.o{stroke-width:1.45px;}.o,.r{stroke:#fff;}.p{font-size:34.8px;font-family:Courier, Courier;}.q{letter-spacing:-0.24em;}.r{stroke-width:1.62px;}.s{opacity:0.1;}.t,.v{fill:#560000;}.v{opacity:0.15;}.w{stroke:#846e57;stroke-width:2.9px;}.x{opacity:0.4;}.aa,.y{fill:#70797c;}.z{fill:#e6e6e6;}</style></defs><g class="a"><path class="b" d="M897.71,448.63h70.94a37.51,37.51,0,0,0,37.51-37.51V265.54a37.42,37.42,0,0,1,37.42-37.42h379.08"/><path class="b" d="M2052.66,448.63H1865.72a37.51,37.51,0,0,1-37.51-37.51V265.54a37.42,37.42,0,0,0-37.42-37.42H1451.71"/><path class="c" d="M2195.34,374.58h273.46a0,0,0,0,1,0,0V510.25a0,0,0,0,1,0,0H2224.09a28.75,28.75,0,0,1-28.75-28.75V374.58A0,0,0,0,1,2195.34,374.58Z" transform="translate(4664.15 884.83) rotate(-180)"/><path class="d" d="M1915.63,290.49l49.47,10.13-3.67-3.41a5,5,0,1,1,6.86-7.38l15.77,14.67,3.48.71a18.74,18.74,0,0,1,16.66,8.36l81.45,123.7a18.72,18.72,0,0,1-31.27,20.59L1980.1,329.42l-1.65-2.51-17.28-3.54a68.5,68.5,0,0,1-22.75-9.13L1912.61,298A4.11,4.11,0,0,1,1915.63,290.49Z"/><path class="e" d="M2151.5,251.06c-7.27-13.57-85.86-48.63-78.5-33.9,11.6,23.2-2.68,30.42-2.68,54.24a43.13,43.13,0,0,0,74.22,29.9"/><path class="d" d="M2142,121.25a67.88,67.88,0,0,1,57.46,86c-1.66,5.83,1.24,12.13,7,14a47.79,47.79,0,0,1-12.37,93.19c-27.48,1.33-23-25.49-23-52.68,0-3.82-26.68-2.59-25.84-6.15a66.55,66.55,0,0,1-31.74-2.39c-25.65-8.34-44.46-31.3-46.91-58.17A67.91,67.91,0,0,1,2142,121.25Z"/><path class="e" d="M2142,121.25a68,68,0,0,1,59.63,59.86c1,9.15,7.58,29,13.45,36,13.56,16.21,25.77,30.07,24.35,52.66a48.14,48.14,0,0,1-45.34,44.66c-27.48,1.33-23-25.49-23-52.68,0-3.82-26.68-2.59-25.84-6.15a66.55,66.55,0,0,1-31.74-2.39c-25.65-8.34-44.46-31.3-46.91-58.17A67.91,67.91,0,0,1,2142,121.25Z"/><path class="f" d="M2195.34,284.84a27,27,0,0,1,42.91,11.27l72.07,174.47c1.68,4.07,4.52,21.51.12,21.24l-39.11-2.34-53.89-104.32"/><path class="g" d="M2353.43,466.18V479.9c0,16.1,16.1,16.1,16.1,16.1h7a18.44,18.44,0,0,0,18.27,16.1h25.29a18.36,18.36,0,0,0,18.37-18.37V443.16c0-4.54-4.54-4.54-4.54-4.54h-52.85s-4.54,0-4.54,4.54v6.92h-6.92S2353.53,450.07,2353.43,466.18Zm9.29.11a7,7,0,0,1,6.92-6.92h6.92v27.56h-6.92a7,7,0,0,1-6.92-6.92Z"/><path class="d" d="M2146.37,316.08l-40,162.31a27,27,0,0,1-33.87,19h0a27,27,0,0,1-18.32-32.57l40.49-164.35a27,27,0,0,1,33.62-18h0A27,27,0,0,1,2146.37,316.08Z"/><path class="f" d="M2093.16,299a23.68,23.68,0,0,1,23.49-20.73h94.43a14.22,14.22,0,0,1,14.22,14.22l-9.47,182.15,12.37,34.58H2087.06l13-49.84Z"/><path class="f" d="M2106.53,292.34l-18.87,55.41a15.68,15.68,0,0,0,4.85,17.14l14,11.6"/><path class="d" d="M2197.7,278.06c0,24.13-19,41.07-43.14,41.07s-43.68-16.66-43.68-40.78"/><path class="d" d="M2158.23,255.67a44,44,0,0,1-28.46,10.44h0a44.38,44.38,0,0,1-44.25-44.25V183.23A44.38,44.38,0,0,1,2129.77,139h0l44.73,34.68v58Z"/><path class="e" d="M2177.23,202.28s-86.83-11.22-98.43-31.52,9.43-28,20.3-34.8c14.27-8.91,32.93-7.65,47.66.29a59.11,59.11,0,0,1,24.94,25.59s8.51,17.48,8.51,37.15c0,3.28,3,6.56,3,6.56Z"/><rect class="d" x="2135.46" y="254.86" width="39.04" height="40.81" transform="translate(4309.96 550.53) rotate(-180)"/><path class="d" d="M2166.38,199.59a11.11,11.11,0,0,1,17.77,8.89c0,6.13-14.1,13.7-15.43,13.14"/><path class="h" d="M2166.38,199.59a11.11,11.11,0,0,1,17.77,8.89c0,6.13-14.1,13.7-15.43,13.14"/><path class="e" d="M2174.5,220.06c-14.5,5.8-26.05,15.87-26.05,30.86a27.21,27.21,0,0,0,27.29,27.14l1.16,0"/><polyline class="g" points="2216.53 463.81 2094.09 463.81 2094.09 474.67 2216.53 474.67"/><path class="d" d="M2147.11,489.13l.13-.16,143-25a23.19,23.19,0,0,1,23.19,23.19h0a23.19,23.19,0,0,1-23.19,23.19H2135.58c-5.55,0-21.1,2.93-25.37-1.26C2101.54,500.62,2147.11,489.13,2147.11,489.13Z"/><rect class="i" x="2084.12" y="502.12" width="125" height="12.89" rx="6.45" ry="6.45" transform="translate(4293.23 1017.13) rotate(180)"/><path class="j" d="M1922.61,459.36V515h198.9V386.86c0-4.74-2.65-8.36-7.39-8.36h-183.9c-4.74,0-7.61,3.61-7.61,8.36v48.79"/><circle class="i" cx="2022.06" cy="447.36" r="17.57"/><path class="h" d="M2150.53,260.89l-14.89,5.22,24.2,7.12S2152.11,265.54,2150.53,260.89Z"/><path class="h" d="M2112.15,227.31s-2.9,2.9-8.7,2.9-8.7-5.8-8.7-5.8"/><path class="h" d="M2119.4,238.91s-4.35,4.35-13.05,4.35-13.05-8.7-13.05-8.7"/><circle cx="2128.1" cy="214.26" r="2.9"/><circle cx="2087.5" cy="211.36" r="2.9"/><circle class="k" cx="1939.56" cy="259.44" r="15.95"/><path class="l" d="M611.81,285.78a27,27,0,0,0-34.58,16.12L511.06,458.16l55.2,7.89,61.68-145.68A27,27,0,0,0,611.81,285.78Z"/><path class="l" d="M561,486.21a33.32,33.32,0,0,0-33.32-33.32c-18.4,0-32.47,14.94-33.32,33.32-.48,10.44,8.28,22.94,11.12,27.84h23"/><path class="m" d="M787.57,499l11.86-20.76a9.09,9.09,0,0,1,5.7-4.33L829,467.5a4.44,4.44,0,0,0,3.08-2.62l3.54-7.64a4.79,4.79,0,0,0,.23-3.31,4.48,4.48,0,0,1,.34-3.19l2.05-3.76a5.08,5.08,0,0,0-.57-5.36,2.76,2.76,0,0,1-.23-3.08l1-1.48a5.6,5.6,0,0,0,.34-5.36v-.11a2.48,2.48,0,0,1,1.48-3.31l22.59-6.73a4.73,4.73,0,1,0-2.51-9.13L819,423.12a2.46,2.46,0,0,1-2.28-4.22l10-9.47a4.81,4.81,0,0,0,.57-7,4.88,4.88,0,0,0-6.5-.34l-15.63,12.09c-8.67,5.13-14.83,29.89-40.72,68.1a5.69,5.69,0,0,0,1.14,7.64l13.57,10.61A5.57,5.57,0,0,0,787.57,499Z"/><path class="l" d="M693.83,334.46l52.24,158.78a27,27,0,0,0,35.23,16.4h0a27,27,0,0,0,15.77-33.88L744.15,315a27,27,0,0,0-34.9-15.43h0A27,27,0,0,0,693.83,334.46Z"/><path class="l" d="M604.41,284.06h92.17a52.15,52.15,0,0,1,52.15,52.15V515a0,0,0,0,1,0,0H590.19a0,0,0,0,1,0,0V298.28a14.22,14.22,0,0,1,14.22-14.22Z"/><line class="n" x1="669.46" y1="318.8" x2="669.46" y2="501.33"/><path class="m" d="M683.41,483.68l-.16-.19L528.51,460.26a27,27,0,0,0-27,27h0a27,27,0,0,0,27,27h180a25.46,25.46,0,0,0,17.89-7.28C736.43,497.05,683.41,483.68,683.41,483.68Z"/><line class="o" x1="463.82" y1="514.22" x2="891.1" y2="514.22"/><rect class="k" x="773" y="254" width="47" height="84" rx="7.12" ry="7.12"/><rect class="k" x="1045.19" y="254" width="47" height="84" rx="7.12" ry="7.12"/><path class="k" d="M1050.78,254.1H814.61a41.42,41.42,0,0,0-41.42,41.42v1.26a41.42,41.42,0,0,0,41.42,41.42h1.05l15.47,15.47L846.6,338.2h204.17a41.42,41.42,0,0,0,41.42-41.42v-1.26A41.42,41.42,0,0,0,1050.78,254.1Z"/><text class="p" transform="translate(799.13 305.57)">if “usernam<tspan class="q" x="229.72" y="0">...</tspan></text><circle class="r" cx="660.48" cy="341.66" r="2.14"/><circle class="r" cx="660.48" cy="399.66" r="2.14"/><circle class="r" cx="660.48" cy="457.66" r="2.14"/><g class="h"><path d="M662.43,235.73s-1.72,55.67,28,55.67V263.57Z"/></g><path class="m" d="M754.84,216.3c0,5.86-4.75,16.41-10.61,16.41s-10.61-10.55-10.61-16.41a10.61,10.61,0,1,1,21.21,0Z"/><g class="s"><path class="t" d="M754.84,216.3c0,5.86-4.75,16.41-10.61,16.41s-10.61-10.55-10.61-16.41a10.61,10.61,0,1,1,21.21,0Z"/></g><path class="m" d="M668,313.8a22.39,22.39,0,0,1-22.39-22.39v-105l52.72-11.82-7.93,76.86V291.4a22.66,22.66,0,0,1-.11,2.28"/><circle class="d" cx="705.47" cy="173.34" r="39.18"/><path class="m" d="M702.38,279.52h0A39.67,39.67,0,0,1,662.77,242l-2.19-40.29c-1.23-22.72,16.86-33.12,39.61-33.12h4.37c22.75,0,40.84,10.4,39.61,33.12L742,242A39.67,39.67,0,0,1,702.38,279.52Z"/><path class="d" d="M644.71,245.67l12-20.13c16,0,26.05-30.36,26.05-46.35h0c0-10.29,10.55-37.92.26-37.92,0,0-19.33,15.36-24.46,16.38S638.91,173.17,636,190.57,644.71,245.67,644.71,245.67Z"/><path class="m" d="M663.43,230.5c-5.86,0-10.61-10.55-10.61-16.41a10.61,10.61,0,0,1,21.21,0"/><g class="u"><path class="v" d="M663.43,230.5c-5.86,0-10.61-10.55-10.61-16.41a10.61,10.61,0,0,1,21.21,0"/></g><path class="v" d="M712.86,235.52s2.9,2.9,8.7,2.9,8.7-5.8,8.7-5.8"/><path class="v" d="M731.69,253.16s-2.89-4.59-11.59-1.69a58,58,0,0,1-14.84,3s2.54,3.22,11.52,1.35l9-1.87Z"/><circle cx="696.91" cy="216.67" r="2.9"/><circle cx="737.51" cy="213.77" r="2.9"/><line class="w" x1="696.81" y1="186.93" x2="710.06" y2="186.93"/><line class="w" x1="731.22" y1="186.93" x2="741.57" y2="186.93"/><rect class="i" x="629.57" y="501.33" width="125" height="12.89" rx="6.45" ry="6.45"/><path class="j" d="M724.57,377.72H907.72a8.36,8.36,0,0,1,8.36,8.36V514.22a0,0,0,0,1,0,0H717.18a0,0,0,0,1,0,0V385.11A7.39,7.39,0,0,1,724.57,377.72Z"/><circle class="i" cx="816.52" cy="446.57" r="17.57"/><polygon class="h" points="590.19 345.27 590.19 372.31 590.19 409.28 585.26 421.12 590.19 345.27"/><g class="x"><circle class="g" cx="1742.7" cy="470.74" r="3"/></g><rect class="k" x="1132.5" y="225.5" width="20" height="5" rx="1.77" ry="1.77"/><rect class="k" x="1052.5" y="225.5" width="20" height="5" rx="1.77" ry="1.77"/><rect class="k" x="996.5" y="375.5" width="20" height="5" rx="1.77" ry="1.77" transform="translate(628.5 1384.5) rotate(-90)"/><rect class="k" x="1687.5" y="225.5" width="70" height="5" rx="2.5" ry="2.5"/><circle class="c" cx="1521.24" cy="269.92" r="11.26" transform="translate(10.26 592.36) rotate(-22.11)"/><circle class="c" cx="1561.31" cy="278.61" r="11.26" transform="translate(9.94 608.08) rotate(-22.11)"/><circle class="c" cx="1541.35" cy="278.03" r="11.26" transform="translate(8.69 600.53) rotate(-22.11)"/><circle class="c" cx="1535.59" cy="256.7" r="11.26" transform="translate(16.29 596.79) rotate(-22.11)"/><circle class="c" cx="1539.41" cy="266.57" r="11.26" transform="translate(12.86 598.96) rotate(-22.11)"/><circle class="c" cx="1565.43" cy="259.63" r="11.26" transform="translate(17.38 608.24) rotate(-22.11)"/><circle class="c" cx="1553.35" cy="268.49" r="11.26" transform="translate(13.16 604.34) rotate(-22.11)"/><circle class="c" cx="1575.4" cy="269.36" r="6.48" transform="translate(14.45 612.71) rotate(-22.11)"/><circle class="c" cx="1527.47" cy="282.97" r="6.48" transform="translate(5.81 595.67) rotate(-22.11)"/><circle class="c" cx="1550.52" cy="255.07" r="6.48" transform="translate(18 602.29) rotate(-22.11)"/><rect class="g" x="1556" y="248" width="35" height="49"/><circle class="c" cx="1280.29" cy="295.96" r="3.01"/><rect class="j" x="1263.22" y="246.67" width="35.1" height="60.22" rx="7.47" ry="7.47"/><g class="x"><circle class="g" cx="1280.32" cy="257.67" r="3"/></g><circle class="c" cx="1452.31" cy="100.97" r="18.48" transform="translate(68.78 554) rotate(-22.11)"/><circle class="c" cx="1518.1" cy="115.23" r="18.48" transform="translate(68.25 579.81) rotate(-22.11)"/><circle class="c" cx="1485.32" cy="114.29" r="18.48" transform="translate(66.19 567.4) rotate(-22.11)"/><circle class="c" cx="1475.88" cy="79.26" r="18.48" transform="translate(78.68 561.27) rotate(-22.11)"/><circle class="c" cx="1482.14" cy="95.48" r="18.48" transform="translate(73.04 564.82) rotate(-22.11)"/><circle class="c" cx="1524.86" cy="84.07" r="18.48" transform="translate(80.47 580.06) rotate(-22.11)"/><circle class="c" cx="1505.03" cy="98.62" r="18.48" transform="translate(73.54 573.67) rotate(-22.11)"/><circle class="c" cx="1541.24" cy="100.05" r="10.64" transform="translate(75.66 587.4) rotate(-22.11)"/><circle class="c" cx="1462.53" cy="122.4" r="10.64" transform="translate(61.46 559.42) rotate(-22.11)"/><circle class="c" cx="1500.38" cy="76.58" r="10.64" transform="translate(81.49 570.3) rotate(-22.11)"/><circle class="c" cx="1192.31" cy="148.97" r="18.48" transform="translate(31.6 459.68) rotate(-22.11)"/><circle class="c" cx="1258.1" cy="163.23" r="18.48" transform="translate(31.07 485.49) rotate(-22.11)"/><circle class="c" cx="1225.32" cy="162.29" r="18.48" transform="translate(29.01 473.08) rotate(-22.11)"/><circle class="c" cx="1215.88" cy="127.26" r="18.48" transform="translate(41.5 466.95) rotate(-22.11)"/><circle class="c" cx="1222.14" cy="143.48" r="18.48" transform="translate(35.86 470.5) rotate(-22.11)"/><circle class="c" cx="1264.86" cy="132.07" r="18.48" transform="translate(43.29 485.74) rotate(-22.11)"/><circle class="c" cx="1245.03" cy="146.62" r="18.48" transform="translate(36.36 479.35) rotate(-22.11)"/><circle class="c" cx="1281.24" cy="148.05" r="10.64" transform="translate(38.48 493.08) rotate(-22.11)"/><circle class="c" cx="1202.53" cy="170.4" r="10.64" transform="translate(24.28 465.1) rotate(-22.11)"/><circle class="c" cx="1240.38" cy="124.58" r="10.64" transform="translate(44.31 475.98) rotate(-22.11)"/><circle class="c" cx="1641.24" cy="139.92" r="11.26" transform="translate(68.01 627.97) rotate(-22.11)"/><circle class="c" cx="1681.31" cy="148.61" r="11.26" transform="translate(67.69 643.69) rotate(-22.11)"/><circle class="c" cx="1661.35" cy="148.03" r="11.26" transform="translate(66.43 636.13) rotate(-22.11)"/><circle class="c" cx="1655.59" cy="126.7" r="11.26" transform="translate(74.04 632.4) rotate(-22.11)"/><circle class="c" cx="1659.41" cy="136.57" r="11.26" transform="translate(70.6 634.56) rotate(-22.11)"/><circle class="c" cx="1685.43" cy="129.63" r="11.26" transform="translate(75.13 643.84) rotate(-22.11)"/><circle class="c" cx="1673.35" cy="138.49" r="11.26" transform="translate(70.91 639.95) rotate(-22.11)"/><circle class="c" cx="1695.4" cy="139.36" r="6.48" transform="translate(72.2 648.31) rotate(-22.11)"/><circle class="c" cx="1647.47" cy="152.97" r="6.48" transform="translate(63.55 631.27) rotate(-22.11)"/><circle class="c" cx="1670.52" cy="125.07" r="6.48" transform="translate(75.75 637.89) rotate(-22.11)"/><path class="y" d="M1541.17,93.74H1642a5.76,5.76,0,0,1,5.76,5.76v65.94a0,0,0,0,1,0,0H1535.41a0,0,0,0,1,0,0V99.5A5.76,5.76,0,0,1,1541.17,93.74Z"/><rect class="j" x="1524.68" y="161.83" width="133.29" height="6.5" rx="3.25" ry="3.25"/><circle class="c" cx="1535.29" cy="100.96" r="3.01"/><rect class="j" x="1518.22" y="51.67" width="35.1" height="60.22" rx="7.47" ry="7.47"/><circle class="k" cx="1535.32" cy="62.67" r="3"/><rect class="z" x="1558.04" y="269.72" width="94.22" height="22.88" rx="2.61" ry="2.61" transform="translate(-0.79 4.56) rotate(-0.16)"/><circle class="k" cx="1570.15" cy="281.26" r="4.04" transform="translate(-0.79 4.46) rotate(-0.16)"/><rect class="z" x="1558.11" y="295.29" width="94.22" height="22.88" rx="2.69" ry="2.69" transform="translate(-0.86 4.56) rotate(-0.16)"/><circle class="k" cx="1570.22" cy="306.83" r="4.04" transform="translate(-0.86 4.46) rotate(-0.16)"/><rect class="z" x="1557.82" y="193" width="94.22" height="22.88" rx="2.61" ry="2.61" transform="matrix(1, 0, 0, 1, -0.57, 4.55)"/><circle class="k" cx="1569.93" cy="204.54" r="4.04" transform="translate(-0.57 4.46) rotate(-0.16)"/><rect class="z" x="1557.89" y="218.57" width="94.22" height="22.88" rx="2.69" ry="2.69" transform="translate(-0.65 4.56) rotate(-0.16)"/><circle class="aa" cx="1570.01" cy="230.11" r="4.04" transform="translate(-0.65 4.46) rotate(-0.16)"/><rect class="z" x="1557.96" y="244.15" width="94.22" height="22.88" rx="2.63" ry="2.63" transform="translate(-0.72 4.56) rotate(-0.16)"/><circle class="aa" cx="1570.08" cy="255.69" r="4.04" transform="translate(-0.72 4.46) rotate(-0.16)"/><rect class="z" x="1194.04" y="368.72" width="94.22" height="22.88" rx="2.61" ry="2.61" transform="translate(-1.07 3.52) rotate(-0.16)"/><circle class="k" cx="1206.15" cy="380.26" r="4.04" transform="translate(-1.07 3.42) rotate(-0.16)"/><rect class="z" x="1193.82" y="292" width="94.22" height="22.88" rx="2.61" ry="2.61" transform="matrix(1, 0, 0, 1, -0.86, 3.52)"/><circle class="k" cx="1205.93" cy="303.54" r="4.04" transform="translate(-0.86 3.42) rotate(-0.16)"/><rect class="z" x="1193.89" y="317.57" width="94.22" height="22.88" rx="2.69" ry="2.69" transform="translate(-0.93 3.52) rotate(-0.16)"/><circle class="aa" cx="1206.01" cy="329.11" r="4.04" transform="translate(-0.93 3.42) rotate(-0.16)"/><rect class="z" x="1193.96" y="343.15" width="94.22" height="22.88" rx="2.63" ry="2.63" transform="translate(-1 3.52) rotate(-0.16)"/><circle class="aa" cx="1206.08" cy="354.69" r="4.04" transform="translate(-1 3.42) rotate(-0.16)"/><rect class="z" x="1273.82" y="92" width="94.22" height="22.88" rx="2.61" ry="2.61" transform="translate(-0.29 3.75) rotate(-0.16)"/><circle class="k" cx="1285.93" cy="103.54" r="4.04" transform="translate(-0.29 3.65) rotate(-0.16)"/><rect class="z" x="1273.89" y="117.57" width="94.22" height="22.88" rx="2.69" ry="2.69" transform="translate(-0.36 3.75) rotate(-0.16)"/><circle class="aa" cx="1286.01" cy="129.11" r="4.04" transform="translate(-0.36 3.65) rotate(-0.16)"/><rect class="z" x="1273.96" y="143.15" width="94.22" height="22.88" rx="2.63" ry="2.63" transform="translate(-0.43 3.75) rotate(-0.16)"/><circle class="aa" cx="1286.08" cy="154.69" r="4.04" transform="translate(-0.43 3.65) rotate(-0.16)"/><circle class="k" cx="1634.97" cy="106.74" r="3"/><circle class="c" cx="1343.2" cy="317.42" r="22.2" transform="translate(-20.7 528.85) rotate(-22.11)"/><circle class="c" cx="1422.22" cy="334.54" r="22.2" transform="translate(-21.34 559.85) rotate(-22.11)"/><circle class="c" cx="1382.86" cy="333.41" r="22.2" transform="translate(-23.81 544.95) rotate(-22.11)"/><circle class="c" cx="1371.51" cy="291.34" r="22.2" transform="translate(-8.81 537.59) rotate(-22.11)"/><circle class="c" cx="1379.04" cy="310.82" r="22.2" transform="translate(-15.59 541.85) rotate(-22.11)"/><circle class="c" cx="1430.34" cy="297.11" r="22.2" transform="translate(-6.66 560.15) rotate(-22.11)"/><circle class="c" cx="1406.53" cy="314.59" r="22.2" transform="translate(-14.98 552.47) rotate(-22.11)"/><circle class="c" cx="1450.01" cy="316.31" r="12.78" transform="translate(-12.43 568.97) rotate(-22.11)"/><circle class="c" cx="1355.48" cy="343.15" r="12.78" transform="translate(-29.49 535.36) rotate(-22.11)"/><circle class="c" cx="1400.94" cy="288.12" r="12.78" transform="translate(-5.44 548.43) rotate(-22.11)"/><path class="y" d="M1390.69,320.74h121.09a6.92,6.92,0,0,1,6.92,6.92v79.2a0,0,0,0,1,0,0H1383.76a0,0,0,0,1,0,0v-79.2A6.92,6.92,0,0,1,1390.69,320.74Z"/><rect class="j" x="1370.88" y="402.53" width="160.09" height="7.81" rx="3.9" ry="3.9"/><g class="x"><circle class="g" cx="1505.7" cy="333.74" r="3"/></g><circle class="k" cx="1439.56" cy="228.44" r="32.44"/><g class="x"><circle class="g" cx="1317.75" cy="84.74" r="3"/></g><rect class="y" x="1341.46" y="165.27" width="24.23" height="3.32" rx="1.66" ry="1.66" transform="translate(1520.5 -1186.65) rotate(90)"/><rect class="y" x="1379.54" y="165.27" width="24.23" height="3.32" rx="1.66" ry="1.66" transform="translate(1558.58 -1224.72) rotate(90)"/><rect class="j" x="1342.61" y="173.93" width="60" height="13.56" rx="3.14" ry="3.14"/><circle class="k" cx="1395" cy="180.7" r="3"/><rect class="y" x="1265.46" y="352.27" width="24.23" height="3.32" rx="1.66" ry="1.66" transform="translate(1631.5 -923.65) rotate(90)"/><rect class="y" x="1303.54" y="352.27" width="24.23" height="3.32" rx="1.66" ry="1.66" transform="translate(1669.58 -961.72) rotate(90)"/><rect class="j" x="1266.61" y="360.93" width="60" height="13.56" rx="3.14" ry="3.14"/><circle class="k" cx="1319" cy="367.7" r="3"/><rect class="y" x="1545.46" y="350.27" width="24.23" height="3.32" rx="1.66" ry="1.66" transform="translate(1909.5 -1205.65) rotate(90)"/><rect class="y" x="1583.54" y="350.27" width="24.23" height="3.32" rx="1.66" ry="1.66" transform="translate(1947.58 -1243.72) rotate(90)"/><rect class="j" x="1546.61" y="358.93" width="60" height="13.56" rx="3.14" ry="3.14"/><g class="x"><circle class="g" cx="1599" cy="365.7" r="3"/></g></g></svg>